<?xml version="1.0" encoding="UTF-8" standalone="no"?>
<svg
   id="Layer_1"
   data-name="Layer 1"
   viewBox="0 0 1300 280"
   version="1.1"
   sodipodi:docname="logo.svg"
   width="1300"
   height="280"
   inkscape:version="1.3.2 (091e20e, 2023-11-25)"
   xmlns:inkscape="http://www.inkscape.org/namespaces/inkscape"
   xmlns:sodipodi="http://sodipodi.sourceforge.net/DTD/sodipodi-0.dtd"
   xmlns="http://www.w3.org/2000/svg"
   xmlns:svg="http://www.w3.org/2000/svg">
  <sodipodi:namedview
     id="namedview96"
     pagecolor="#ffffff"
     bordercolor="#999999"
     borderopacity="1"
     inkscape:showpageshadow="2"
     inkscape:pageopacity="0"
     inkscape:pagecheckerboard="0"
     inkscape:deskcolor="#d1d1d1"
     inkscape:zoom="0.32502611"
     inkscape:cx="909.15772"
     inkscape:cy="698.40542"
     inkscape:window-width="1712"
     inkscape:window-height="1041"
     inkscape:window-x="0"
     inkscape:window-y="43"
     inkscape:window-maximized="1"
     inkscape:current-layer="Layer_1" />
  <defs
     id="defs2">
    <style
       id="style1">
      .cls-1 {
        clip-path: url(#clippath-1);
      }

      .cls-1, .cls-2, .cls-3, .cls-4 {
        fill: none;
      }

      .cls-5 {
        fill: #0af;
      }

      .cls-6 {
        fill: #0068ff;
      }

      .cls-7 {
        fill: #1300c6;
      }

      .cls-8 {
        fill: #4dffa6;
      }

      .cls-2, .cls-4 {
        stroke: #4d4d4d;
        stroke-miterlimit: 10;
      }

      .cls-3 {
        clip-path: url(#clippath);
      }

      .cls-4 {
        stroke-width: 1px;
      }
    </style>
    <clipPath
       id="clippath">
      <path
         class="cls-8"
         d="m 1031.91,370.3 c 0,74.83 -56.5,123.24 -126.45,123.24 -78.19,0 -137.29,-58.34 -137.29,-128.58 0,-70.24 59.25,-129.35 135.61,-129.35 31.31,0.46 67.5,13.74 87.81,32.53 l -36.19,49.63 c -13.74,-12.83 -33.44,-21.07 -51.62,-21.07 -36.65,0 -68.87,30.08 -68.87,68.11 0,34.51 27.64,68.11 73.15,68.11 29.78,0 51.01,-14.36 51.92,-37.87 h -56.35 v -48.72 h 126.29 c 1.22,8.25 1.99,16.19 1.99,23.98 z"
         id="path1" />
    </clipPath>
    <clipPath
       id="clippath-1">
      <path
         class="cls-8"
         d="m 1040.99,364.96 c 0,-73.91 58.64,-129.96 135.15,-129.96 76.51,0 135.15,56.05 135.15,129.96 0,73.91 -58.64,129.04 -135.3,129.04 -76.66,0 -135,-55.74 -135,-129.04 z m 204.18,-0.46 c 0,-38.03 -29.93,-67.35 -69.03,-67.35 -39.1,0 -69.02,29.32 -69.02,67.35 0,38.03 29.93,67.04 69.02,67.04 39.09,0 69.03,-29.17 69.03,-67.04 z"
         id="path2" />
    </clipPath>
  </defs>
  <g
     id="g97"
     transform="translate(5,-0.5)">
    <path
       class="cls-7"
       d="M 200.27,78.65 H 141.32 V 263.74 H 75.81 V 78.65 H 16.71 V 17.56 h 183.56 z"
       id="path3" />
    <path
       class="cls-7"
       d="m 342.95,218.41 c -6.27,3.14 -9.78,3.79 -11.62,3.79 -1.01,0 -1.59,-0.24 -2.11,-1.59 -0.58,-1.52 -1.27,-4.61 -1.27,-10.73 v -56.72 c 0,-15.57 -5.9,-27.99 -17.54,-36.92 -11.34,-8.69 -28.24,-13.1 -50.23,-13.1 -8.55,0 -17.11,0.75 -25.46,2.22 -8.37,1.48 -16.52,3.75 -24.23,6.76 -7.76,3.04 -15.07,6.99 -21.73,11.77 l -1.54,1.11 v 50.5 l 6.27,-6.12 c 7.78,-7.6 16.47,-13.89 25.81,-18.7 9.15,-4.71 19.21,-7.09 29.91,-7.09 8.2,0 13.64,1.56 15.75,4.51 2.12,2.97 3.32,7.11 3.59,12.33 -1.14,0.54 -2.24,1 -3.3,1.39 -1.77,0.65 -4.52,1.58 -8.16,2.77 -3.7,1.2 -9.15,2.96 -16.36,5.26 -12.81,4.08 -23.27,8.08 -31.09,11.89 -8.18,3.99 -14.81,9.22 -19.7,15.57 -5.06,6.55 -7.63,14.86 -7.63,24.7 0,6.49 1.45,12.87 4.32,18.96 2.97,6.31 8.14,11.58 15.39,15.65 7.12,4 16.44,6.03 27.71,6.03 11.27,0 21.03,-1.58 28.3,-4.7 5.58,-2.4 10.83,-5.34 15.64,-8.78 1.6,3 3.69,5.67 6.27,7.99 4.11,3.7 10.77,5.49 20.37,5.49 9.6,0 17.49,-0.97 24.24,-2.88 6.53,-1.85 13.74,-4.32 21.41,-7.33 l 2.34,-0.92 v -35.77 l -5.35,2.67 z m -74.34,-26.8 V 219 c -3.01,2.22 -5.99,4.15 -8.87,5.77 -2.98,1.67 -5.85,2.48 -8.8,2.48 -2.95,0 -5.24,-0.96 -7.39,-2.93 -2.06,-1.88 -3.06,-4.67 -3.06,-8.53 0,-5.6 2.27,-9.93 6.95,-13.21 4.62,-3.25 11.73,-6.94 21.17,-10.97 z"
       id="path4" />
    <polygon
       class="cls-7"
       points="449.4,408.18 389.61,484.04 456.05,484.04 482.38,445.21 508.85,484.04 582.35,484.04 520.54,403.19 579.08,329.75 512.61,329.75 487.15,366.86 461.96,329.75 388.53,329.75 "
       id="polygon4"
       transform="translate(-38,-224)" />
    <path
       class="cls-7"
       d="m 718.12,218.41 c -6.27,3.14 -9.78,3.8 -11.62,3.8 -1.01,0 -1.59,-0.24 -2.1,-1.59 -0.58,-1.52 -1.27,-4.61 -1.27,-10.73 v -56.72 c 0,-15.57 -5.9,-27.99 -17.54,-36.92 -11.34,-8.69 -28.24,-13.1 -50.23,-13.1 -8.55,0 -17.11,0.75 -25.46,2.22 -8.37,1.48 -16.52,3.75 -24.23,6.76 -7.76,3.04 -15.07,6.99 -21.73,11.77 l -1.54,1.11 v 50.5 l 6.27,-6.12 c 7.78,-7.6 16.47,-13.89 25.81,-18.7 9.15,-4.71 19.21,-7.09 29.91,-7.09 8.2,0 13.65,1.56 15.76,4.51 2.12,2.97 3.32,7.11 3.59,12.33 -1.14,0.54 -2.24,1 -3.3,1.39 -1.78,0.66 -4.53,1.59 -8.16,2.77 -3.7,1.2 -9.15,2.96 -16.36,5.26 -12.81,4.08 -23.27,8.08 -31.09,11.89 -8.18,3.99 -14.81,9.22 -19.7,15.57 -5.06,6.55 -7.63,14.86 -7.63,24.7 0,6.49 1.45,12.87 4.32,18.96 2.97,6.31 8.14,11.58 15.39,15.65 7.12,4 16.44,6.03 27.71,6.03 11.27,0 21.03,-1.58 28.3,-4.7 5.58,-2.4 10.83,-5.34 15.64,-8.78 1.6,3 3.69,5.67 6.27,7.99 4.11,3.7 10.77,5.49 20.37,5.49 9.6,0 17.49,-0.97 24.24,-2.88 6.53,-1.85 13.73,-4.32 21.41,-7.33 l 2.35,-0.92 v -35.77 l -5.35,2.67 z m -74.34,-26.8 V 219 c -3.01,2.22 -5.99,4.15 -8.87,5.77 -2.98,1.67 -5.85,2.48 -8.8,2.48 -2.95,0 -5.24,-0.96 -7.39,-2.93 -2.06,-1.88 -3.06,-4.67 -3.06,-8.53 0,-5.6 2.27,-9.93 6.95,-13.21 4.63,-3.25 11.73,-6.94 21.17,-10.97 z"
       id="path5" />
    <g
       id="g45"
       transform="translate(-38,-224)">
      <path
         class="cls-8"
         d="m 1031.91,370.3 c 0,74.83 -56.5,123.24 -126.45,123.24 -78.19,0 -137.29,-58.34 -137.29,-128.58 0,-70.24 59.25,-129.35 135.61,-129.35 31.31,0.46 67.5,13.74 87.81,32.53 l -36.19,49.63 c -13.74,-12.83 -33.44,-21.07 -51.62,-21.07 -36.65,0 -68.87,30.08 -68.87,68.11 0,34.51 27.64,68.11 73.15,68.11 29.78,0 51.01,-14.36 51.92,-37.87 h -56.35 v -48.72 h 126.29 c 1.22,8.25 1.99,16.19 1.99,23.98 z"
         id="path6" />
      <g
         class="cls-3"
         clip-path="url(#clippath)"
         id="g44">
        <g
           id="g43">
          <g
             id="g17">
            <polyline
               class="cls-2"
               points="828.02 248.5 876.37 295.1 876.37 248.5"
               id="polyline6" />
            <polyline
               class="cls-2"
               points="973.06 434.9 924.72 388.3 1021.41 434.9"
               id="polyline7" />
            <polyline
               class="cls-2"
               points="828.02 388.3 779.67 434.9 779.67 388.3 828.02 434.9 828.02 388.3 876.37 434.9 779.67 388.3 924.72 434.9"
               id="polyline8" />
            <polygon
               class="cls-4"
               points="925,388.3 973.21,341.7 973.21,388.3 1021.41,341.7 1021.41,388.3 925,341.7 "
               id="polygon8" />
            <line
               class="cls-4"
               x1="973.21002"
               y1="388.29999"
               x2="925"
               y2="341.70001"
               id="line8" />
            <line
               class="cls-4"
               x1="925"
               y1="388.29999"
               x2="1021.41"
               y2="341.70001"
               id="line9" />
            <line
               class="cls-2"
               x1="924.71997"
               y1="481.5"
               x2="973.06"
               y2="434.89999"
               id="line10" />
            <polyline
               class="cls-2"
               points="924.72 434.9 924.72 481.5 876.37 434.9 828.02 481.5 924.72 434.9 876.37 481.5 828.02 434.9 828.02 481.5 779.67 434.9 876.37 481.5 876.37 434.9"
               id="polyline10" />
            <polyline
               class="cls-2"
               points="973.06 341.7 1021.41 388.3 1025.23 434.9 973.06 388.3 973.06 434.9"
               id="polyline11" />
            <polyline
               class="cls-2"
               points="973.06 295.1 828.02 248.5 924.72 295.1"
               id="polyline12" />
            <polyline
               class="cls-2"
               points="779.67 341.7 876.37 295.1 828.02 341.7 828.02 388.3 779.67 341.7 779.67 388.3 828.02 341.7 828.02 295.1 779.67 341.7 828.02 248.5 828.02 295.1 876.37 248.5 924.72 295.1 924.72 248.5 973.06 295.1 876.37 248.5"
               id="polyline13" />
            <polyline
               class="cls-2"
               points="876.37 295.1 924.72 248.5 828.02 295.1"
               id="polyline14" />
            <polyline
               class="cls-2"
               points="779.67 434.9 924.72 481.5 828.02 434.9"
               id="polyline15" />
            <line
               class="cls-2"
               x1="1025.23"
               y1="434.89999"
               x2="924.71997"
               y2="481.5"
               id="line15" />
            <polygon
               class="cls-2"
               points="876.37,481.5 1021.41,434.9 828.02,481.5 973.06,434.9 "
               id="polygon15" />
            <polyline
               class="cls-2"
               points="1025.23 434.9 1021.41 388.3 973.06 434.9"
               id="polyline16" />
            <polyline
               class="cls-2"
               points="973.06 388.3 924.72 434.9 1021.41 388.3"
               id="polyline17" />
          </g>
          <g
             id="g42">
            <rect
               class="cls-5"
               x="913.21997"
               y="237"
               width="23"
               height="23"
               id="rect17" />
            <rect
               class="cls-5"
               x="864.87"
               y="237"
               width="23"
               height="23"
               id="rect18" />
            <rect
               class="cls-5"
               x="816.52002"
               y="237"
               width="23"
               height="23"
               id="rect19" />
            <rect
               class="cls-5"
               x="961.56"
               y="283.60001"
               width="23"
               height="23"
               id="rect20" />
            <rect
               class="cls-5"
               x="913.21997"
               y="283.60001"
               width="23"
               height="23"
               id="rect21" />
            <rect
               class="cls-5"
               x="864.87"
               y="283.60001"
               width="23"
               height="23"
               id="rect22" />
            <rect
               class="cls-5"
               x="816.52002"
               y="283.60001"
               width="23"
               height="23"
               id="rect23" />
            <rect
               class="cls-5"
               x="1009.91"
               y="330.20001"
               width="23"
               height="23"
               id="rect24" />
            <rect
               class="cls-5"
               x="961.56"
               y="330.20001"
               width="23"
               height="23"
               id="rect25" />
            <rect
               class="cls-5"
               x="913.21997"
               y="330.20001"
               width="23"
               height="23"
               id="rect26" />
            <rect
               class="cls-5"
               x="816.52002"
               y="330.20001"
               width="23"
               height="23"
               id="rect27" />
            <rect
               class="cls-5"
               x="768.16998"
               y="330.20001"
               width="23"
               height="23"
               id="rect28" />
            <rect
               class="cls-5"
               x="1009.91"
               y="376.79999"
               width="23"
               height="23"
               id="rect29" />
            <rect
               class="cls-5"
               x="961.56"
               y="376.79999"
               width="23"
               height="23"
               id="rect30" />
            <rect
               class="cls-5"
               x="913.21997"
               y="376.79999"
               width="23"
               height="23"
               id="rect31" />
            <rect
               class="cls-5"
               x="816.52002"
               y="376.79999"
               width="23"
               height="23"
               id="rect32" />
            <rect
               class="cls-5"
               x="768.16998"
               y="376.79999"
               width="23"
               height="23"
               id="rect33" />
            <rect
               class="cls-5"
               x="1009.91"
               y="423.39999"
               width="23"
               height="23"
               id="rect34" />
            <rect
               class="cls-5"
               x="961.56"
               y="423.39999"
               width="23"
               height="23"
               id="rect35" />
            <rect
               class="cls-5"
               x="913.21997"
               y="423.39999"
               width="23"
               height="23"
               id="rect36" />
            <rect
               class="cls-5"
               x="864.87"
               y="423.39999"
               width="23"
               height="23"
               id="rect37" />
            <rect
               class="cls-5"
               x="816.52002"
               y="423.39999"
               width="23"
               height="23"
               id="rect38" />
            <rect
               class="cls-5"
               x="768.16998"
               y="423.39999"
               width="23"
               height="23"
               id="rect39" />
            <rect
               class="cls-5"
               x="913.21997"
               y="470"
               width="23"
               height="23"
               id="rect40" />
            <rect
               class="cls-5"
               x="864.87"
               y="470"
               width="23"
               height="23"
               id="rect41" />
            <rect
               class="cls-5"
               x="816.52002"
               y="470"
               width="23"
               height="23"
               id="rect42" />
          </g>
        </g>
      </g>
    </g>
    <g
       id="g83"
       transform="translate(-38,-224)">
      <path
         class="cls-8"
         d="m 1040.99,364.96 c 0,-73.91 58.64,-129.96 135.15,-129.96 76.51,0 135.15,56.05 135.15,129.96 0,73.91 -58.64,129.04 -135.3,129.04 -76.66,0 -135,-55.74 -135,-129.04 z m 204.18,-0.46 c 0,-38.03 -29.93,-67.35 -69.03,-67.35 -39.1,0 -69.02,29.32 -69.02,67.35 0,38.03 29.93,67.04 69.02,67.04 39.09,0 69.03,-29.17 69.03,-67.04 z"
         id="path45" />
      <g
         class="cls-1"
         clip-path="url(#clippath-1)"
         id="g82">
        <g
           id="g81">
          <g
             id="g56">
            <polygon
               class="cls-2"
               points="1069.76,295.1 1166.46,248.5 1118.11,295.1 1118.11,248.5 "
               id="polygon45" />
            <polygon
               class="cls-2"
               points="1166.46,295.1 1166.46,248.5 1214.8,295.1 1118.11,248.5 "
               id="polygon46" />
            <polyline
               class="cls-2"
               points="1166.46 248.5 1263.15 295.1 1118.11 248.5"
               id="polyline46" />
            <polygon
               class="cls-2"
               points="1214.8,295.1 1214.8,248.5 1263.15,295.1 1263.15,248.5 "
               id="polygon47" />
            <polygon
               class="cls-2"
               points="1166.46,295.1 1214.8,248.5 1118.11,295.1 1259.66,248.5 "
               id="polygon48" />
            <polyline
               class="cls-2"
               points="1259.66 248.5 1069.76 295.1 1214.8 248.5"
               id="polyline48" />
            <polygon
               class="cls-2"
               points="1118.11,341.7 1069.76,295.1 1069.76,341.7 1118.11,295.1 "
               id="polygon49" />
            <polygon
               class="cls-2"
               points="1263.15,341.7 1263.15,295.1 1311.5,341.7 1214.8,295.1 "
               id="polygon50" />
            <polygon
               class="cls-2"
               points="1263.15,388.3 1263.15,341.7 1311.5,388.3 1311.5,341.7 "
               id="polygon51" />
            <polyline
               class="cls-2"
               points="1311.5 388.3 1166.46 434.9 1263.15 388.3"
               id="polyline51" />
            <polyline
               class="cls-2"
               points="1263.15 341.7 1166.46 295.1 1311.5 341.7"
               id="polyline52" />
            <polyline
               class="cls-2"
               points="1069.76 295.1 1118.11 388.3 1069.76 341.7 1069.76 388.3 1118.11 341.7"
               id="polyline53" />
            <polygon
               class="cls-2"
               points="1069.76,388.3 1118.11,434.9 1118.11,388.3 1069.76,434.9 "
               id="polygon53" />
            <polyline
               class="cls-2"
               points="1069.76 388.3 1166.46 434.9 1118.11 481.5 1263.15 434.9"
               id="polyline54" />
            <polygon
               class="cls-2"
               points="1214.8,434.9 1311.5,388.3 1263.15,438.5 1214.8,481.5 1166.46,434.9 1166.46,481.5 1263.15,434.9 1263.15,388.3 "
               id="polygon54" />
            <polyline
               class="cls-2"
               points="1214.8 434.9 1214.8 481.5 1118.11 434.9"
               id="polyline55" />
            <polygon
               class="cls-2"
               points="1118.11,481.5 1118.11,434.9 1166.46,481.5 1210.25,434.9 "
               id="polygon55" />
            <polyline
               class="cls-2"
               points="1118.11 481.5 1069.76 434.9 1166.46 481.5"
               id="polyline56" />
            <line
               class="cls-2"
               x1="1214.8"
               y1="481.5"
               x2="1069.76"
               y2="434.89999"
               id="line56" />
          </g>
          <g
             id="g80">
            <rect
               class="cls-5"
               x="1251.65"
               y="237"
               width="23"
               height="23"
               id="rect56" />
            <rect
               class="cls-5"
               x="1203.3"
               y="237"
               width="23"
               height="23"
               id="rect57" />
            <rect
               class="cls-5"
               x="1154.96"
               y="237"
               width="23"
               height="23"
               id="rect58" />
            <rect
               class="cls-5"
               x="1106.61"
               y="237"
               width="23"
               height="23"
               id="rect59" />
            <rect
               class="cls-5"
               x="1251.65"
               y="283.60001"
               width="23"
               height="23"
               id="rect60" />
            <rect
               class="cls-5"
               x="1203.3"
               y="283.60001"
               width="23"
               height="23"
               id="rect61" />
            <rect
               class="cls-5"
               x="1154.96"
               y="283.60001"
               width="23"
               height="23"
               id="rect62" />
            <rect
               class="cls-5"
               x="1106.61"
               y="283.60001"
               width="23"
               height="23"
               id="rect63" />
            <rect
               class="cls-5"
               x="1058.26"
               y="283.60001"
               width="23"
               height="23"
               id="rect64" />
            <rect
               class="cls-5"
               x="1251.65"
               y="330.20001"
               width="23"
               height="23"
               id="rect65" />
            <rect
               class="cls-5"
               x="1106.61"
               y="330.20001"
               width="23"
               height="23"
               id="rect66" />
            <rect
               class="cls-5"
               x="1058.26"
               y="330.20001"
               width="23"
               height="23"
               id="rect67" />
            <rect
               class="cls-5"
               x="1300"
               y="330.20001"
               width="23"
               height="23"
               id="rect68" />
            <rect
               class="cls-5"
               x="1251.65"
               y="376.79999"
               width="23"
               height="23"
               id="rect69" />
            <rect
               class="cls-5"
               x="1106.61"
               y="376.79999"
               width="23"
               height="23"
               id="rect70" />
            <rect
               class="cls-5"
               x="1058.26"
               y="376.79999"
               width="23"
               height="23"
               id="rect71" />
            <rect
               class="cls-5"
               x="1300"
               y="376.79999"
               width="23"
               height="23"
               id="rect72" />
            <rect
               class="cls-5"
               x="1251.65"
               y="423.39999"
               width="23"
               height="23"
               id="rect73" />
            <rect
               class="cls-5"
               x="1203.3"
               y="423.39999"
               width="23"
               height="23"
               id="rect74" />
            <rect
               class="cls-5"
               x="1154.96"
               y="423.39999"
               width="23"
               height="23"
               id="rect75" />
            <rect
               class="cls-5"
               x="1106.61"
               y="423.39999"
               width="23"
               height="23"
               id="rect76" />
            <rect
               class="cls-5"
               x="1058.26"
               y="423.39999"
               width="23"
               height="23"
               id="rect77" />
            <rect
               class="cls-5"
               x="1203.3"
               y="470"
               width="23"
               height="23"
               id="rect78" />
            <rect
               class="cls-5"
               x="1154.96"
               y="470"
               width="23"
               height="23"
               id="rect79" />
            <rect
               class="cls-5"
               x="1106.61"
               y="470"
               width="23"
               height="23"
               id="rect80" />
          </g>
        </g>
      </g>
    </g>
    <g
       id="g91"
       transform="translate(-38,-224)">
      <rect
         class="cls-6"
         x="913.21997"
         y="237"
         width="23"
         height="23"
         id="rect83" />
      <rect
         class="cls-6"
         x="864.87"
         y="237"
         width="23"
         height="23"
         id="rect84" />
      <rect
         class="cls-6"
         x="816.52002"
         y="237"
         width="23"
         height="23"
         id="rect85" />
      <rect
         class="cls-6"
         x="1009.91"
         y="330.20001"
         width="23"
         height="23"
         id="rect86" />
      <rect
         class="cls-6"
         x="961.56"
         y="330.20001"
         width="23"
         height="23"
         id="rect87" />
      <rect
         class="cls-6"
         x="913.21997"
         y="330.20001"
         width="23"
         height="23"
         id="rect88" />
      <rect
         class="cls-6"
         x="768.16998"
         y="330.20001"
         width="23"
         height="23"
         id="rect89" />
      <rect
         class="cls-6"
         x="913.21997"
         y="470"
         width="23"
         height="23"
         id="rect90" />
      <rect
         class="cls-6"
         x="864.87"
         y="470"
         width="23"
         height="23"
         id="rect91" />
    </g>
    <g
       id="g96"
       transform="translate(-38,-224)">
      <rect
         class="cls-6"
         x="1203.3"
         y="237"
         width="23"
         height="23"
         id="rect92" />
      <rect
         class="cls-6"
         x="1106.61"
         y="237"
         width="23"
         height="23"
         id="rect93" />
      <rect
         class="cls-6"
         x="1058.26"
         y="423.39999"
         width="23"
         height="23"
         id="rect94" />
      <rect
         class="cls-6"
         x="1203"
         y="423"
         width="23"
         height="23"
         id="rect95" />
      <rect
         class="cls-6"
         x="1106.61"
         y="470"
         width="23"
         height="23"
         id="rect96" />
    </g>
    <path
       class="cls-7"
       d="m 1164.58,109.89 c 0.61,-0.61 0.51,-1.66 0.16,-2.36 -0.69,-1.38 -0.93,-2.33 -2.04,-3.39 -0.96,-0.92 -2.64,-1.29 -3.77,-2.04 0.04,0 -0.19,-0.3 -0.36,-0.38 -0.34,-0.34 -0.7,-0.62 -1.08,-0.79 -0.88,-0.41 -3.51,-0.47 -3.54,-0.45 -0.8,0.4 -2.36,1.37 -2.48,1.4 -0.12,0.17 -0.26,0.33 -0.4,0.48 0,0 -1.11,1.32 -1.97,2.25 -1.59,1.71 -4.42,1.89 -6.57,2.14 -4.31,0.5 -7.9,3.09 -10.4,6.53 -2.09,1.73 -3.98,3.79 -5.65,5.37 -2.45,2.31 -5.17,4.31 -7.55,6.74 -2.54,2.59 -5.65,4.87 -7.8,7.81 -1.8,2.47 -3.21,4.43 -3.82,7.49 -0.33,1.66 -1.05,2.99 0.49,4.13 2.46,1.81 4.74,3.82 7.35,5.44 0.39,0.24 0.85,0.47 1.35,0.69 -1.3,0.67 -2.52,1.54 -3.58,2.42 -3.09,2.55 -4.47,6.41 -7.76,8.66 -1.59,1.09 -4.63,1.74 -4.56,4.27 0.02,0.7 -0.14,1.72 0.44,2.27 0.65,0.62 1.6,1.13 2.12,1.82 0.39,0.52 0.6,1.21 0.93,1.77 0.64,1.09 1.84,1.9 2.72,2.78 0.78,0.78 1.55,2 2.69,2.31 1.91,0.51 4.35,0.53 6.03,-0.75 1.31,-0.99 -1.27,-3.17 -1.87,-3.71 -1.21,-1.09 -2.83,-1.82 -4.1,-2.85 -1.36,-1.09 -0.9,-3.08 -0.29,-4.92 0.22,0 0.43,0 0.63,-0.03 1.09,-0.14 2.32,-0.89 3.29,-1.3 2.03,-0.85 4.14,-1.53 6.08,-2.57 2.76,-1.49 5.67,-2.8 8.47,-4.28 -0.25,1.29 -0.42,2.57 -0.64,3.63 -0.6,2.98 1.8,5.09 1.79,7.97 0,1.89 -1.31,5.66 0.13,7.24 0.81,0.9 1.63,0.9 2.8,1.11 1.31,0.24 2.53,0.82 3.82,1.1 2.58,0.56 4.99,2.32 7.72,1.94 0.68,-0.09 1.62,-1.01 2.3,-1.29 0.42,-0.17 1.82,-0.82 1.91,-1.44 0.23,-1.63 -3.42,-1.84 -4.55,-2.2 -2.08,-0.68 -3.89,-1.65 -5.64,-2.97 -0.47,-0.36 -0.89,-0.76 -1.29,-1.19 0.07,-1.22 0.34,-2.48 0.49,-3.2 0.37,-1.8 0.5,-3.62 0.83,-5.42 0.21,-1.14 0.23,-2.24 0.23,-3.39 0,-2.26 0.25,-4.31 0.62,-6.54 0.38,-2.3 0.12,-4.69 -1.41,-6.5 -0.96,-1.14 -2.16,-2.21 -3.37,-3.08 -0.06,-0.04 -0.12,-0.09 -0.18,-0.13 1.22,-0.57 2.38,-1.32 3.57,-2.35 0.34,-0.3 0.67,-0.62 0.99,-0.96 0.88,2.05 2.15,4 2.85,6.06 0.35,1.03 0.71,2.01 1.12,2.95 -0.16,2.02 -0.36,4.02 -0.41,6.05 -0.06,2.07 0.57,4.15 0.71,6.21 0.06,0.95 0.04,1.85 0.12,2.73 -0.8,1.36 -1.47,2.47 -1.48,4.31 0,1.11 -0.02,2.83 1.26,3.21 0.06,0.02 0.12,0 0.17,-0.04 0.6,-0.59 1.61,-2.42 2.59,0.39 0.17,0.49 0.27,1.04 -0.3,0.89 -0.43,-0.11 -1.15,-0.04 -1.58,0.12 -0.07,0.03 -0.1,0.07 -0.11,0.14 -0.16,1.52 1.29,1.55 2.4,1.43 0.62,-0.06 1.24,-0.13 1.85,-0.27 0.62,-0.14 0.74,-1.03 1.28,-1.15 3.33,-0.73 3.25,-4.49 1.49,-6.74 0.3,-0.9 0.39,-1.84 0.39,-3.01 0,-0.91 -0.14,-1.81 -0.14,-2.72 0.84,1.89 1.92,3.69 3.15,5.28 -0.1,0.48 -0.18,0.97 -0.23,1.47 -0.19,2.06 0.6,4.17 0.59,6.25 0,0.71 -0.12,1.67 0.77,1.92 0.21,0.06 0.71,-0.08 0.95,-0.13 0.78,-0.15 1.68,0.47 2.47,0.23 0.79,-0.24 0.59,-0.11 1.15,-0.74 1.15,-1.29 0.8,-0.56 1.99,-1.01 1.1,-0.42 1.37,-0.96 1.45,-2.13 0.14,-2.22 -1.59,-4.44 -3.34,-6.07 -0.03,-2.97 0.13,-6.23 -1.16,-8.61 -0.69,-1.28 -1.35,-2.46 -2.27,-3.52 0.43,-3.68 0.08,-7.52 -1.56,-10.69 -1.41,-2.72 -2.12,-5.99 -2.92,-8.93 -0.3,-1.11 -0.74,-2.3 -1.21,-3.35 0.37,-0.71 0.78,-1.39 1.26,-2.01 1.09,-1.4 2.48,-2.53 3.69,-3.82 0.85,-0.91 2.06,-1.83 3.07,-2.85 0.66,0.08 1.31,0.06 2.04,0 0.93,-0.08 1.6,-0.87 1.85,-1.75 1.2,0.02 2.5,-0.72 2.66,-2.04 0.09,-0.73 -0.19,-1.87 -0.77,-2.58 0.12,-0.26 0.18,-0.55 0.1,-0.81 -0.22,-0.75 -0.75,-1.34 -1.24,-1.95 0.89,-0.67 1.21,-1.22 2.01,-2.02 z"
       id="path96" />
  </g>
</svg>
